<svg xmlns="http://www.w3.org/2000/svg" width="24" height="24" viewBox="0 0 24 24" fill="none">
  <path d="M15.57,5.49H8.43C7.62,5.49 6.95,6.15 6.95,6.97V17.03C6.95,17.84 7.61,18.51 8.43,18.51H15.57C16.38,18.51 17.05,17.85 17.05,17.03V6.97C17.05,6.16 16.39,5.49 15.57,5.49Z" fill="none" stroke="#000000" stroke-width="1.25" stroke-linecap="round" stroke-linejoin="round"/>
  <path d="M23,7.11V3C23,1.89 22.1,1 21,1H16.9" fill="none" stroke="#000000" stroke-width="1.28" stroke-linecap="round" stroke-linejoin="round"/>
  <path d="M16.89,23H20.99C22.1,23 22.99,22.1 22.99,21V16.9" fill="none" stroke="#000000" stroke-width="1.28" stroke-linecap="round" stroke-linejoin="round"/>
  <path d="M1,16.89V20.99C1,22.1 1.9,22.99 3,22.99H7.11" fill="none" stroke="#000000" stroke-width="1.28" stroke-linecap="round" stroke-linejoin="round"/>
  <path d="M7.11,1H3C1.9,1 1,1.9 1,3V7.11" fill="none" stroke="#000000" stroke-width="1.28" stroke-linecap="round" stroke-linejoin="round"/>
  <path d="M9.85,8.82H14.15" fill="none" stroke="#000000" stroke-width="1.25" stroke-linecap="round" stroke-linejoin="round"/>
  <path d="M9.85,12H14.15" fill="none" stroke="#000000" stroke-width="1.25" stroke-linecap="round" stroke-linejoin="round"/>
  <path d="M9.85,15.18H14.15" fill="none" stroke="#000000" stroke-width="1.25" stroke-linecap="round" stroke-linejoin="round"/>
</svg>
