<svg xmlns="http://www.w3.org/2000/svg" width="24" height="24" viewBox="0 0 24 24">
<defs>
  <clipPath id="cp1"><path d="M0,0h24v24h-24z"/></clipPath>
</defs>
  <g clip-path="url(#cp1)">
  <path d="M12,1L12,1A11,11 0,0 1,23 12L23,12A11,11 0,0 1,12 23L12,23A11,11 0,0 1,1 12L1,12A11,11 0,0 1,12 1z" fill="none" stroke="#000000" stroke-width="1.25" stroke-linecap="round" stroke-linejoin="round"/>
  <path d="M12,12m-5,0a5,5 0,1 1,10 0a5,5 0,1 1,-10 0" fill="none" stroke="#000000" stroke-width="1.25" stroke-linecap="round" stroke-linejoin="round"/>
  </g>
</svg>
