<svg xmlns="http://www.w3.org/2000/svg" width="24" height="24" viewBox="0 0 24 24">
<defs>
  <clipPath id="cp1"><path d="M1.02,7.73h15.25v15.25H1.02z"/></clipPath>
</defs>
  <path d="M8.36,6.36V3.64c0,-1.1 0.9,-2 2,-2h10c1.1,0 2,0.9 2,2v10c0,1.1 -0.9,2 -2,2h-2.72m-4,0h-3.28c-1.1,0 -2,-0.9 -2,-2v-3.28" fill="none" stroke="#000000" stroke-width="1.25" stroke-linecap="round" stroke-linejoin="round"/>
  <g clip-path="url(#cp1)">
  <path d="M9.81,8.35h1m-4.33,0h1m5.66,0h1m-10.99,0h1m5.66,14.01h1m-4.33,0h1m5.66,0h1m-10.99,0h1m11.5,-5.84v1m0,-4.33v1m0,5.66v1m0,-10.99v1M1.64,16.52v1m0,-4.33v1m0,5.66v1m0,-10.99v1" fill="none" stroke="#000000" stroke-width="1.25" stroke-linecap="round" stroke-linejoin="round"/>
  </g>
</svg>
